<svg width="38" height="32" viewBox="0 0 38 32" fill="none" xmlns="http://www.w3.org/2000/svg">
<path fill-rule="evenodd" clip-rule="evenodd" d="M6.81268 0.157165L0.0278938 14.246C0.00207571 14.2984 -0.00610586 14.3576 0.00454551 14.4149C0.0151969 14.4722 0.0441224 14.5247 0.0870921 14.5646L18.4112 31.9231C18.4632 31.9724 18.5325 32 18.6047 32C18.6768 32 18.7461 31.9724 18.7981 31.9231L37.1222 14.5657C37.1652 14.5258 37.1941 14.4733 37.2048 14.416C37.2154 14.3587 37.2072 14.2995 37.1814 14.2471L30.3966 0.158249C30.3747 0.110933 30.3395 0.0708502 30.2952 0.0427912C30.2509 0.0147322 30.1993 -0.000116069 30.1467 2.09732e-05H7.06482C7.01193 -0.000629456 6.95999 0.0138611 6.91525 0.0417447C6.87051 0.0696283 6.83489 0.109714 6.81268 0.157165V0.157165V0.157165Z" fill="white"/>
<path fill-rule="evenodd" clip-rule="evenodd" d="M20.5795 15.6663C20.4485 15.6759 19.7712 15.7156 18.2604 15.7156C17.0588 15.7156 16.2057 15.6802 15.9064 15.6663C11.2627 15.466 7.79662 14.6733 7.79662 13.7243C7.79662 12.7752 11.2627 11.9837 15.9064 11.7801V14.8769C16.2101 14.8983 17.0796 14.9486 18.2812 14.9486C19.7231 14.9486 20.4452 14.8897 20.5752 14.8779V11.7823C25.209 11.9847 28.6674 12.7774 28.6674 13.7243C28.6674 14.6712 25.2101 15.4638 20.5752 15.6652L20.5795 15.6663ZM20.5795 11.462V8.69092H27.0464V4.46521H9.43954V8.69092H15.9053V11.4609C10.6499 11.6977 6.69769 12.7185 6.69769 13.9417C6.69769 15.165 10.6499 16.1847 15.9053 16.4225V25.3024H20.5784V16.4193C25.8218 16.1826 29.7675 15.1629 29.7675 13.9407C29.7675 12.7185 25.8251 11.6987 20.5784 11.4609L20.5795 11.462Z" fill="black"/>
</svg>
